<svg width="56" height="56" viewBox="0 0 56 56" fill="none" xmlns="http://www.w3.org/2000/svg">
<rect width="56" height="56" rx="8" fill="#FF6853"/>
<path d="M39.2496 13L31.7496 18.625V22.2613L26.8845 27.1264C27.2824 27.3754 27.6621 27.6572 28.0019 27.9977C28.3417 28.3375 28.6242 28.7172 28.8732 29.115L33.7382 24.25H37.3746L42.9996 16.75L39.2496 13ZM20.4996 29.3236L13.6394 36.1838C12.7869 37.0363 12.7869 38.4191 13.6394 39.2723L16.7273 42.3602C17.5804 43.2133 18.9626 43.2133 19.8158 42.3602L26.6759 35.5C28.3816 33.7943 28.3816 31.0293 26.6759 29.3236C24.9703 27.618 22.2052 27.618 20.4996 29.3236Z" fill="white"/>
</svg>
