<svg width="56" height="56" viewBox="0 0 56 56" fill="none" xmlns="http://www.w3.org/2000/svg">
<rect width="56" height="56" rx="8" fill="#80D2C4"/>
<path d="M42.3626 36.1843L35.5017 29.3233C34.1482 27.9699 32.1269 27.7062 30.498 28.5089L24.2523 22.2632V18.6247L16.7527 13L13.0029 16.7498L18.6276 24.2494H22.2661L28.5118 30.4951C27.715 32.1239 27.9728 34.1453 29.3262 35.4987L36.1872 42.3597C37.0426 43.2151 38.4253 43.2151 39.2749 42.3597L42.3626 39.272C43.2122 38.4166 43.2122 37.0338 42.3626 36.1843ZM32.4374 26.1829C34.0955 26.1829 35.654 26.8274 36.8258 27.9992L37.9625 29.1358C38.8882 28.7315 39.7671 28.1691 40.5287 27.4074C42.7024 25.2337 43.4407 22.1753 42.7493 19.3981C42.6204 18.8708 41.9583 18.6891 41.5716 19.0758L37.2125 23.435L33.2342 22.7729L32.5722 18.7946L36.9313 14.4355C37.318 14.0488 37.1305 13.3867 36.5973 13.2519C33.8201 12.5664 30.7617 13.3047 28.5939 15.4725C26.924 17.1423 26.1389 19.3453 26.1799 21.5425L30.9902 26.3528C31.4648 26.2414 31.957 26.1829 32.4374 26.1829ZM26.3498 30.9873L23.0278 27.6652L14.0986 36.6002C12.6338 38.065 12.6338 40.4379 14.0986 41.9027C15.5633 43.3674 17.9362 43.3674 19.401 41.9027L26.6428 34.6609C26.1975 33.495 26.0627 32.2235 26.3498 30.9873ZM16.7527 40.6547C15.9793 40.6547 15.3465 40.0219 15.3465 39.2485C15.3465 38.4693 15.9735 37.8424 16.7527 37.8424C17.532 37.8424 18.1589 38.4693 18.1589 39.2485C18.1589 40.0219 17.532 40.6547 16.7527 40.6547Z" fill="white"/>
</svg>
