<svg width="477" height="512" viewBox="0 0 477 512" fill="none" xmlns="http://www.w3.org/2000/svg">
<path d="M477 498V8C477 3.58172 473.418 0 469 0H382.106C380.158 0 378.277 0.710834 376.816 1.99913L9.70949 325.648C7.98689 327.167 7 329.352 7 331.649V498C7 502.418 10.5817 506 15 506H469C473.418 506 477 502.418 477 498Z" fill="#3F3B62"/>
<g filter="url(#filter0_d_358_16)">
<rect x="50" y="47" width="375" height="411" rx="8" fill="#827EAC"/>
</g>
<path d="M94.6719 355.863C94.6719 355.247 94.7005 354.646 94.7578 354.059C94.8151 353.471 94.9512 352.949 95.166 352.49C95.3952 352.018 95.7246 351.638 96.1543 351.352C96.584 351.065 97.1784 350.922 97.9375 350.922C98.6823 350.922 99.2695 351.065 99.6992 351.352C100.143 351.638 100.473 352.018 100.688 352.49C100.917 352.949 101.06 353.471 101.117 354.059C101.174 354.646 101.203 355.247 101.203 355.863V362.609H107.09V355.863C107.09 355.247 107.118 354.646 107.176 354.059C107.233 353.471 107.369 352.949 107.584 352.49C107.813 352.018 108.143 351.638 108.572 351.352C109.002 351.065 109.596 350.922 110.355 350.922C111.1 350.922 111.688 351.065 112.117 351.352C112.561 351.638 112.891 352.018 113.105 352.49C113.335 352.949 113.478 353.471 113.535 354.059C113.592 354.646 113.621 355.247 113.621 355.863V376.059C113.621 376.689 113.592 377.298 113.535 377.885C113.478 378.472 113.335 379.002 113.105 379.475C112.891 379.933 112.561 380.305 112.117 380.592C111.688 380.864 111.1 381 110.355 381C109.596 381 109.002 380.864 108.572 380.592C108.143 380.305 107.813 379.933 107.584 379.475C107.369 379.002 107.233 378.472 107.176 377.885C107.118 377.298 107.09 376.689 107.09 376.059V368.926H101.203V376.059C101.203 376.689 101.174 377.298 101.117 377.885C101.06 378.472 100.917 379.002 100.688 379.475C100.473 379.933 100.143 380.305 99.6992 380.592C99.2695 380.864 98.6823 381 97.9375 381C97.1784 381 96.584 380.864 96.1543 380.592C95.7246 380.305 95.3952 379.933 95.166 379.475C94.9512 379.002 94.8151 378.472 94.7578 377.885C94.7005 377.298 94.6719 376.689 94.6719 376.059V355.863ZM125.051 368.023H131.883L128.703 356.508H128.23L125.051 368.023ZM138.543 370.129C138.572 371.103 138.607 372.098 138.65 373.115C138.693 374.132 138.715 375.113 138.715 376.059V376.703C138.715 377.247 138.693 377.777 138.65 378.293C138.622 378.794 138.514 379.253 138.328 379.668C138.142 380.069 137.848 380.391 137.447 380.635C137.046 380.878 136.48 381 135.75 381C135.005 381 134.432 380.878 134.031 380.635C133.63 380.391 133.329 380.069 133.129 379.668C132.943 379.267 132.828 378.809 132.785 378.293C132.757 377.777 132.742 377.247 132.742 376.703V373.695H124.148V376.703C124.148 377.247 124.127 377.777 124.084 378.293C124.055 378.809 123.941 379.267 123.74 379.668C123.554 380.069 123.26 380.391 122.859 380.635C122.458 380.878 121.885 381 121.141 381C120.396 381 119.823 380.878 119.422 380.635C119.021 380.391 118.727 380.069 118.541 379.668C118.355 379.253 118.247 378.794 118.219 378.293C118.19 377.777 118.176 377.247 118.176 376.703V376.059C118.176 375.615 118.176 375.142 118.176 374.641C118.19 374.139 118.204 373.631 118.219 373.115C118.233 372.6 118.247 372.091 118.262 371.59C118.276 371.074 118.29 370.587 118.305 370.129C119.021 367.637 119.773 365.116 120.561 362.566C121.348 360.003 122.1 357.467 122.816 354.961C122.96 354.431 123.132 353.923 123.332 353.436C123.533 352.934 123.798 352.505 124.127 352.146C124.456 351.774 124.879 351.48 125.395 351.266C125.91 351.036 126.569 350.922 127.371 350.922H129.52C130.307 350.922 130.959 351.036 131.475 351.266C132.005 351.48 132.434 351.774 132.764 352.146C133.093 352.505 133.351 352.934 133.537 353.436C133.738 353.923 133.917 354.431 134.074 354.961L138.543 370.129ZM159.984 372.105H160.5V354.273C160.5 353.815 160.529 353.385 160.586 352.984C160.643 352.569 160.765 352.211 160.951 351.91C161.152 351.609 161.438 351.373 161.811 351.201C162.197 351.015 162.72 350.922 163.379 350.922C164.109 350.922 164.682 351.015 165.098 351.201C165.527 351.373 165.85 351.609 166.064 351.91C166.279 352.211 166.415 352.569 166.473 352.984C166.53 353.385 166.559 353.815 166.559 354.273V376.059C166.559 376.689 166.537 377.298 166.494 377.885C166.465 378.472 166.351 379.002 166.15 379.475C165.964 379.933 165.649 380.305 165.205 380.592C164.775 380.864 164.167 381 163.379 381H160.543C159.87 381 159.304 380.871 158.846 380.613C158.402 380.341 158.029 380.019 157.729 379.646C157.428 379.26 157.184 378.859 156.998 378.443C156.826 378.028 156.69 377.677 156.59 377.391L150.102 359.816H149.586V377.648C149.586 378.107 149.557 378.544 149.5 378.959C149.443 379.36 149.314 379.711 149.113 380.012C148.927 380.312 148.641 380.556 148.254 380.742C147.882 380.914 147.366 381 146.707 381C145.962 381 145.375 380.914 144.945 380.742C144.516 380.556 144.193 380.312 143.979 380.012C143.764 379.711 143.628 379.36 143.57 378.959C143.513 378.544 143.484 378.107 143.484 377.648V355.863C143.484 355.247 143.499 354.646 143.527 354.059C143.57 353.457 143.692 352.927 143.893 352.469C144.093 351.996 144.408 351.624 144.838 351.352C145.282 351.065 145.905 350.922 146.707 350.922H149.543C150.259 350.922 150.839 351.065 151.283 351.352C151.742 351.624 152.114 351.924 152.4 352.254C152.715 352.641 152.966 353.085 153.152 353.586L159.984 372.105ZM181.898 350.922C183.202 350.922 184.412 351.087 185.529 351.416C186.661 351.745 187.642 352.24 188.473 352.898C189.318 353.543 189.977 354.352 190.449 355.326C190.936 356.3 191.18 357.439 191.18 358.742V372.062C191.18 373.18 191.058 374.168 190.814 375.027C190.571 375.872 190.249 376.61 189.848 377.24C189.461 377.856 189.017 378.386 188.516 378.83C188.014 379.26 187.506 379.611 186.99 379.883C185.758 380.542 184.362 380.914 182.801 381H175.668C174.852 381 174.221 380.864 173.777 380.592C173.333 380.305 173.011 379.933 172.811 379.475C172.61 379.002 172.488 378.472 172.445 377.885C172.417 377.298 172.402 376.689 172.402 376.059V355.82C172.402 355.204 172.417 354.603 172.445 354.016C172.488 353.428 172.61 352.906 172.811 352.447C173.011 351.989 173.333 351.624 173.777 351.352C174.221 351.065 174.852 350.922 175.668 350.922H181.898ZM178.934 355.949V375.887H181.727C182.342 375.858 182.894 375.715 183.381 375.457C183.581 375.357 183.782 375.221 183.982 375.049C184.183 374.877 184.362 374.676 184.52 374.447C184.677 374.204 184.799 373.917 184.885 373.588C184.985 373.258 185.035 372.879 185.035 372.449V359.773C185.035 359.301 184.985 358.885 184.885 358.527C184.799 358.155 184.677 357.833 184.52 357.561C184.362 357.288 184.183 357.059 183.982 356.873C183.782 356.687 183.581 356.536 183.381 356.422C182.894 356.15 182.342 355.992 181.727 355.949H178.934ZM207.078 376.145C207.078 376.746 207.049 377.34 206.992 377.928C206.935 378.501 206.799 379.016 206.584 379.475C206.369 379.933 206.047 380.305 205.617 380.592C205.188 380.864 204.6 381 203.855 381C203.096 381 202.502 380.864 202.072 380.592C201.643 380.305 201.313 379.933 201.084 379.475C200.869 379.016 200.733 378.501 200.676 377.928C200.618 377.34 200.59 376.746 200.59 376.145V368.668L194.188 357.238C193.844 356.637 193.514 356.049 193.199 355.477C192.884 354.889 192.727 354.302 192.727 353.715C192.727 353.328 192.834 352.941 193.049 352.555C193.278 352.154 193.686 351.781 194.273 351.438C194.918 351.094 195.52 350.922 196.078 350.922C196.508 350.922 196.895 351.022 197.238 351.223C197.596 351.409 197.919 351.66 198.205 351.975C198.492 352.29 198.749 352.648 198.979 353.049C199.208 353.436 199.415 353.829 199.602 354.23L203.512 362.438H204.199L208.109 354.23C208.296 353.829 208.503 353.436 208.732 353.049C208.962 352.648 209.219 352.29 209.506 351.975C209.792 351.66 210.107 351.409 210.451 351.223C210.809 351.022 211.203 350.922 211.633 350.922C211.934 350.922 212.227 350.965 212.514 351.051C212.8 351.137 213.108 351.266 213.438 351.438C213.996 351.781 214.39 352.154 214.619 352.555C214.863 352.941 214.984 353.328 214.984 353.715C214.984 353.973 214.87 354.395 214.641 354.982C214.411 355.555 214.039 356.307 213.523 357.238L207.078 368.668V376.145ZM231.355 374.039C230.94 374.039 230.582 373.96 230.281 373.803C229.995 373.645 229.744 373.445 229.529 373.201C229.314 372.958 229.128 372.686 228.971 372.385C228.827 372.084 228.706 371.79 228.605 371.504L224.523 359.73H223.965V377.648C223.965 378.107 223.936 378.536 223.879 378.938C223.822 379.339 223.693 379.697 223.492 380.012C223.306 380.312 223.02 380.556 222.633 380.742C222.26 380.914 221.745 381 221.086 381C220.341 381 219.754 380.914 219.324 380.742C218.895 380.556 218.572 380.312 218.357 380.012C218.143 379.697 218.007 379.339 217.949 378.938C217.892 378.536 217.863 378.107 217.863 377.648V355.82C217.863 355.204 217.878 354.603 217.906 354.016C217.949 353.428 218.071 352.906 218.271 352.447C218.472 351.989 218.787 351.624 219.217 351.352C219.661 351.065 220.284 350.922 221.086 350.922H224.008C224.495 350.922 224.903 350.943 225.232 350.986C225.576 351.015 225.891 351.137 226.178 351.352C226.464 351.552 226.743 351.882 227.016 352.34C227.302 352.798 227.61 353.45 227.939 354.295C228.283 355.126 228.677 356.193 229.121 357.496C229.565 358.785 230.109 360.375 230.754 362.266L231.312 363.984H231.828L232.516 361.836C233.103 360.031 233.604 358.506 234.02 357.26C234.435 356.014 234.8 354.99 235.115 354.188C235.43 353.371 235.71 352.748 235.953 352.318C236.211 351.874 236.476 351.552 236.748 351.352C237.035 351.137 237.342 351.015 237.672 350.986C238.001 350.943 238.402 350.922 238.875 350.922H242.012C242.814 350.922 243.43 351.065 243.859 351.352C244.303 351.624 244.626 351.989 244.826 352.447C245.027 352.906 245.141 353.428 245.17 354.016C245.213 354.603 245.234 355.204 245.234 355.82V377.648C245.234 378.107 245.206 378.536 245.148 378.938C245.091 379.339 244.955 379.697 244.74 380.012C244.525 380.312 244.203 380.556 243.773 380.742C243.344 380.914 242.757 381 242.012 381C241.353 381 240.83 380.914 240.443 380.742C240.071 380.556 239.785 380.312 239.584 380.012C239.398 379.697 239.276 379.339 239.219 378.938C239.161 378.536 239.133 378.107 239.133 377.648V359.73H238.531L234.492 371.504C234.378 371.79 234.249 372.084 234.105 372.385C233.962 372.686 233.783 372.958 233.568 373.201C233.354 373.445 233.103 373.645 232.816 373.803C232.53 373.96 232.186 374.039 231.785 374.039H231.355ZM257.223 368.023H264.055L260.875 356.508H260.402L257.223 368.023ZM270.715 370.129C270.743 371.103 270.779 372.098 270.822 373.115C270.865 374.132 270.887 375.113 270.887 376.059V376.703C270.887 377.247 270.865 377.777 270.822 378.293C270.794 378.794 270.686 379.253 270.5 379.668C270.314 380.069 270.02 380.391 269.619 380.635C269.218 380.878 268.652 381 267.922 381C267.177 381 266.604 380.878 266.203 380.635C265.802 380.391 265.501 380.069 265.301 379.668C265.115 379.267 265 378.809 264.957 378.293C264.928 377.777 264.914 377.247 264.914 376.703V373.695H256.32V376.703C256.32 377.247 256.299 377.777 256.256 378.293C256.227 378.809 256.113 379.267 255.912 379.668C255.726 380.069 255.432 380.391 255.031 380.635C254.63 380.878 254.057 381 253.312 381C252.568 381 251.995 380.878 251.594 380.635C251.193 380.391 250.899 380.069 250.713 379.668C250.527 379.253 250.419 378.794 250.391 378.293C250.362 377.777 250.348 377.247 250.348 376.703V376.059C250.348 375.615 250.348 375.142 250.348 374.641C250.362 374.139 250.376 373.631 250.391 373.115C250.405 372.6 250.419 372.091 250.434 371.59C250.448 371.074 250.462 370.587 250.477 370.129C251.193 367.637 251.945 365.116 252.732 362.566C253.52 360.003 254.272 357.467 254.988 354.961C255.132 354.431 255.303 353.923 255.504 353.436C255.704 352.934 255.969 352.505 256.299 352.146C256.628 351.774 257.051 351.48 257.566 351.266C258.082 351.036 258.741 350.922 259.543 350.922H261.691C262.479 350.922 263.131 351.036 263.646 351.266C264.176 351.48 264.606 351.774 264.936 352.146C265.265 352.505 265.523 352.934 265.709 353.436C265.91 353.923 266.089 354.431 266.246 354.961L270.715 370.129ZM292.156 372.105H292.672V354.273C292.672 353.815 292.701 353.385 292.758 352.984C292.815 352.569 292.937 352.211 293.123 351.91C293.324 351.609 293.61 351.373 293.982 351.201C294.369 351.015 294.892 350.922 295.551 350.922C296.281 350.922 296.854 351.015 297.27 351.201C297.699 351.373 298.021 351.609 298.236 351.91C298.451 352.211 298.587 352.569 298.645 352.984C298.702 353.385 298.73 353.815 298.73 354.273V376.059C298.73 376.689 298.709 377.298 298.666 377.885C298.637 378.472 298.523 379.002 298.322 379.475C298.136 379.933 297.821 380.305 297.377 380.592C296.947 380.864 296.339 381 295.551 381H292.715C292.042 381 291.476 380.871 291.018 380.613C290.574 380.341 290.201 380.019 289.9 379.646C289.6 379.26 289.356 378.859 289.17 378.443C288.998 378.028 288.862 377.677 288.762 377.391L282.273 359.816H281.758V377.648C281.758 378.107 281.729 378.544 281.672 378.959C281.615 379.36 281.486 379.711 281.285 380.012C281.099 380.312 280.812 380.556 280.426 380.742C280.053 380.914 279.538 381 278.879 381C278.134 381 277.547 380.914 277.117 380.742C276.688 380.556 276.365 380.312 276.15 380.012C275.936 379.711 275.799 379.36 275.742 378.959C275.685 378.544 275.656 378.107 275.656 377.648V355.863C275.656 355.247 275.671 354.646 275.699 354.059C275.742 353.457 275.864 352.927 276.064 352.469C276.265 351.996 276.58 351.624 277.01 351.352C277.454 351.065 278.077 350.922 278.879 350.922H281.715C282.431 350.922 283.011 351.065 283.455 351.352C283.913 351.624 284.286 351.924 284.572 352.254C284.887 352.641 285.138 353.085 285.324 353.586L292.156 372.105ZM335.254 361.105C335.956 361.105 336.507 361.206 336.908 361.406C337.309 361.592 337.61 361.85 337.811 362.18C338.025 362.509 338.161 362.896 338.219 363.34C338.276 363.77 338.305 364.228 338.305 364.715V377.434C338.305 377.935 338.276 378.4 338.219 378.83C338.161 379.26 338.033 379.639 337.832 379.969C337.632 380.284 337.331 380.535 336.93 380.721C336.529 380.907 335.984 381 335.297 381C334.624 381 334.087 380.914 333.686 380.742C333.285 380.556 332.977 380.312 332.762 380.012C332.547 379.711 332.404 379.353 332.332 378.938C332.275 378.522 332.246 378.078 332.246 377.605V373.781H324.898C324.01 373.781 323.28 373.71 322.707 373.566C322.134 373.423 321.676 373.237 321.332 373.008C321.003 372.764 320.766 372.485 320.623 372.17C320.494 371.855 320.43 371.533 320.43 371.203C320.43 371.031 320.444 370.859 320.473 370.688C320.516 370.516 320.559 370.344 320.602 370.172L324.941 355.09C325.085 354.56 325.221 354.044 325.35 353.543C325.493 353.042 325.679 352.598 325.908 352.211C326.152 351.824 326.481 351.516 326.896 351.287C327.312 351.044 327.878 350.922 328.594 350.922C329.109 350.922 329.532 350.993 329.861 351.137C330.205 351.28 330.477 351.473 330.678 351.717C330.878 351.946 331.014 352.218 331.086 352.533C331.172 352.834 331.215 353.156 331.215 353.5C331.215 353.844 331.186 354.195 331.129 354.553C331.072 354.896 331 355.219 330.914 355.52C330.842 355.82 330.764 356.092 330.678 356.336C330.606 356.565 330.556 356.737 330.527 356.852C330.527 356.852 330.484 357.009 330.398 357.324C330.312 357.625 330.198 358.026 330.055 358.527C329.911 359.014 329.754 359.58 329.582 360.225C329.41 360.855 329.231 361.499 329.045 362.158C328.601 363.705 328.107 365.46 327.562 367.422L327.734 367.594H332.246V364.672C332.246 364.185 332.275 363.727 332.332 363.297C332.389 362.867 332.518 362.495 332.719 362.18C332.919 361.85 333.22 361.592 333.621 361.406C334.022 361.206 334.566 361.105 335.254 361.105ZM360.562 355.82C360.562 355.204 360.591 354.603 360.648 354.016C360.72 353.428 360.87 352.906 361.1 352.447C361.343 351.989 361.701 351.624 362.174 351.352C362.646 351.065 363.298 350.922 364.129 350.922C364.96 350.922 365.611 351.065 366.084 351.352C366.571 351.624 366.929 351.989 367.158 352.447C367.402 352.906 367.552 353.428 367.609 354.016C367.667 354.603 367.695 355.204 367.695 355.82V372.75C367.738 373.38 367.867 373.939 368.082 374.426C368.168 374.641 368.283 374.848 368.426 375.049C368.569 375.249 368.734 375.428 368.92 375.586C369.12 375.743 369.35 375.872 369.607 375.973C369.88 376.059 370.188 376.102 370.531 376.102C370.875 376.102 371.183 376.059 371.455 375.973C371.727 375.872 371.956 375.743 372.143 375.586C372.343 375.428 372.515 375.249 372.658 375.049C372.801 374.848 372.916 374.641 373.002 374.426C373.217 373.939 373.339 373.38 373.367 372.75V355.82C373.367 355.204 373.396 354.603 373.453 354.016C373.51 353.428 373.654 352.906 373.883 352.447C374.126 351.989 374.484 351.624 374.957 351.352C375.43 351.065 376.089 350.922 376.934 350.922C377.764 350.922 378.416 351.065 378.889 351.352C379.361 351.624 379.712 351.989 379.941 352.447C380.185 352.906 380.335 353.428 380.393 354.016C380.464 354.603 380.5 355.204 380.5 355.82V372.191C380.5 373.681 380.257 374.984 379.77 376.102C379.297 377.219 378.617 378.157 377.729 378.916C376.855 379.661 375.802 380.227 374.57 380.613C373.353 380.986 372.007 381.172 370.531 381.172C369.042 381.172 367.688 380.979 366.471 380.592C365.253 380.191 364.201 379.611 363.312 378.852C362.439 378.092 361.758 377.154 361.271 376.037C360.799 374.92 360.562 373.638 360.562 372.191V355.82Z" fill="#24204A"/>
<mask id="mask0_358_16" style="mask-type:luminance" maskUnits="userSpaceOnUse" x="104" y="159" width="112" height="48">
<path fill-rule="evenodd" clip-rule="evenodd" d="M145.512 160.592C144.158 160.886 142.727 161.444 141.702 162.3C134.406 168.379 126.429 170.107 116.775 166.364C111.6 164.357 107.927 164.896 105.914 167.648L105.866 167.714C104.708 169.338 104.115 171.712 104.115 174.77C104.117 176.823 104.223 178.909 104.559 180.95C105.863 188.872 108.279 190.488 116.208 188.69C119.226 188.007 122.206 187.143 125.114 186.136C137.52 181.838 141.051 183.523 145.178 196.413C153.269 195.937 161.489 195.451 170.014 194.95C169.758 191.77 169.563 189.333 169.367 186.899C170.602 186.81 172.316 187.098 172.874 186.434C176.91 181.628 181.944 182.661 186.484 185.394C192.064 188.757 197.363 192.609 202.653 196.457C203.753 197.257 204.851 198.056 205.953 198.849C209.127 201.141 212.069 203.757 215.117 206.225C214.131 199.12 212.995 192.203 209.422 186.747C205.434 180.655 200.341 175.446 194.531 171.255C180.494 161.126 162.295 156.934 145.512 160.592ZM181.832 174.353C172.383 173.747 172.151 181.31 169.363 186.626C169.299 175.02 172.051 172.052 181.832 174.353Z" fill="white"/>
</mask>
<g mask="url(#mask0_358_16)">
<path fill-rule="evenodd" clip-rule="evenodd" d="M145.512 160.592C144.158 160.886 142.727 161.444 141.702 162.3C134.406 168.379 126.429 170.107 116.775 166.364C111.6 164.357 107.927 164.896 105.914 167.648L105.866 167.714C104.708 169.338 104.115 171.712 104.115 174.77C104.117 176.823 104.223 178.909 104.559 180.95C105.863 188.872 108.279 190.488 116.208 188.69C119.226 188.007 122.206 187.143 125.114 186.136C137.52 181.838 141.051 183.523 145.178 196.413C153.269 195.937 161.489 195.451 170.014 194.95C169.758 191.77 169.563 189.333 169.367 186.899C170.602 186.81 172.316 187.098 172.874 186.434C176.91 181.628 181.944 182.661 186.484 185.394C192.064 188.757 197.363 192.609 202.653 196.457C203.753 197.257 204.851 198.056 205.953 198.849C209.127 201.141 212.069 203.757 215.117 206.225C214.131 199.12 212.995 192.203 209.422 186.747C205.434 180.655 200.341 175.446 194.531 171.255C180.494 161.126 162.295 156.934 145.512 160.592ZM181.832 174.353C172.383 173.747 172.151 181.31 169.363 186.626C169.299 175.02 172.051 172.052 181.832 174.353Z" fill="url(#paint0_linear_358_16)"/>
</g>
<mask id="mask1_358_16" style="mask-type:luminance" maskUnits="userSpaceOnUse" x="50" y="122" width="199" height="198">
<path fill-rule="evenodd" clip-rule="evenodd" d="M132.517 122L248.837 205.952L166.664 319.807L50.3445 235.855L132.517 122Z" fill="white"/>
</mask>
<g mask="url(#mask1_358_16)">
<path fill-rule="evenodd" clip-rule="evenodd" d="M178.154 294.029C175.945 283.669 174.414 272.598 171.094 261.981C167.535 250.596 168.395 239.507 168.715 228.255C168.995 218.46 169.209 208.659 169.485 197.521C164.14 198.489 159.95 199.558 155.662 199.946C150.604 200.405 149.279 202.376 150.187 207.534C151.944 217.519 153.815 227.675 153.747 237.649C153.637 253.67 151.975 269.602 151.007 285.575C150.877 287.708 150.969 289.866 150.963 290.885C160.006 291.931 168.213 292.88 178.154 294.029ZM169.55 186.432C170.809 186.296 172.649 186.641 173.233 185.946C177.27 181.142 182.304 182.174 186.842 184.907C193.584 188.967 199.912 193.745 206.312 198.362C209.487 200.654 211.81 202.658 214.857 205.126C213.472 198.287 212.653 191.953 209.081 186.497C201.563 175.013 190.199 166.821 177.734 162.547C171.827 160.523 165.936 159.485 159.743 159.332C155.321 159.222 150.63 159.504 146.199 160.47C144.845 160.765 143.626 161.064 142.6 161.918C135.305 167.999 127.278 170.269 117.624 166.526C109.393 163.334 104.472 165.936 104.474 174.283C104.475 176.336 104.582 178.422 104.918 180.463C106.222 188.385 108.638 190.002 116.567 188.204C119.584 187.519 122.566 186.656 125.473 185.649C137.879 181.351 141.41 183.036 145.537 195.927C153.628 195.45 161.468 194.54 169.993 194.037C169.487 190.504 169.227 188.832 169.03 186.387L169.55 186.432ZM103.742 163.972C110.887 163.824 116.814 161.207 124.405 163.879C128.128 165.189 133.386 162.093 137.804 160.619C141.329 159.444 144.473 156.786 148.061 156.369C175.02 153.231 197.209 162.427 212.523 185.828C216.526 191.946 217.582 199.857 219.777 206.997C220.05 207.888 219.039 210.012 218.559 210.006C217.054 209.987 215.267 209.573 214.035 208.688C206.744 203.458 199.583 198.048 192.368 192.712C191.856 192.333 191.291 191.895 190.701 191.766C186.315 190.802 180.689 187.96 177.884 189.57C175.326 191.038 175.27 197.307 175.077 201.553C174.475 214.89 173.738 228.258 174.198 241.637C174.542 251.679 176.719 261.749 177.956 271.816C178.944 279.85 180.257 287.915 180.394 295.93C180.454 299.422 178.8 303.635 176.413 306.104C170.176 312.558 154.121 312.266 147.343 305.695C145.19 303.608 143.63 299.775 143.666 296.861C143.8 285.77 143.856 274.565 145.503 263.71C148.057 246.873 147.561 230.139 144.421 213.217C143.32 207.283 142.326 201.335 141.299 195.392C140.209 189.086 137.96 187.274 131.74 188.682C126.91 189.775 122.33 191.726 117.579 193.128C109.104 195.631 104.455 193.43 102.588 184.658C101.233 178.286 102.376 172.104 102.052 165.573L103.742 163.972Z" fill="#231F20"/>
</g>
<mask id="mask2_358_16" style="mask-type:luminance" maskUnits="userSpaceOnUse" x="165" y="169" width="17" height="20">
<path fill-rule="evenodd" clip-rule="evenodd" d="M175.777 169.712L181.921 174.146L171.637 188.393L165.494 183.959L175.777 169.712Z" fill="white"/>
</mask>
<g mask="url(#mask2_358_16)">
<path fill-rule="evenodd" clip-rule="evenodd" d="M169.358 186.623C169.183 185.122 169.308 183.526 169.412 182.222C170.053 174.147 173.355 172.357 181.832 174.353C180.441 174.264 179.443 174.381 178.442 174.646C176.933 175.047 175.723 175.579 174.78 176.468C174.429 176.8 173.988 177.08 173.696 177.464C171.702 180.097 170.934 183.743 169.3 186.705C169.282 186.711 169.456 186.655 169.456 186.655" fill="#231F20"/>
</g>
<path fill-rule="evenodd" clip-rule="evenodd" d="M178.219 294.239C168.278 293.09 159.85 292.446 150.808 291.4C150.813 290.382 150.722 288.223 150.852 286.091C151.82 270.117 153.481 254.185 153.592 238.164C153.66 228.19 151.788 218.034 150.031 208.049C149.563 205.389 149.659 203.448 150.562 202.152C150.616 202.074 150.715 201.929 150.775 201.857C151.649 200.792 153.108 200.156 155.402 199.948C159.69 199.56 164.159 198.503 169.503 197.535C169.226 208.672 169.06 218.932 168.78 228.727C168.526 237.645 168.079 246.457 169.558 255.409C169.946 257.753 170.493 260.148 171.232 262.51C172.194 265.588 173.036 268.611 173.758 271.738C175.022 277.21 176.165 282.764 177.104 288.168C177.438 290.089 178.216 292.146 178.186 293.985C178.182 294.21 178.024 294.323 177.999 294.544" fill="#744C28"/>
<mask id="mask3_358_16" style="mask-type:luminance" maskUnits="userSpaceOnUse" x="280" y="162" width="112" height="48">
<path fill-rule="evenodd" clip-rule="evenodd" d="M322.153 163.395C320.8 163.689 319.368 164.247 318.343 165.103C311.047 171.182 303.07 172.909 293.416 169.166C288.241 167.16 284.568 167.699 282.555 170.451L282.508 170.517C281.35 172.141 280.756 174.514 280.756 177.572C280.758 179.626 280.864 181.711 281.2 183.753C282.504 191.674 284.92 193.291 292.849 191.493C295.867 190.809 298.848 189.946 301.755 188.938C314.161 184.641 317.692 186.326 321.819 199.216C329.91 198.74 338.13 198.254 346.655 197.752C346.4 194.573 346.204 192.135 346.008 189.702C347.243 189.613 348.957 189.901 349.515 189.237C353.551 184.431 358.586 185.464 363.125 188.197C368.706 191.559 374.004 195.412 379.294 199.26C380.394 200.06 381.492 200.858 382.594 201.652C385.768 203.943 388.71 206.559 391.758 209.028C390.772 201.923 389.636 195.006 386.063 189.549C382.075 183.457 376.982 178.249 371.172 174.057C357.136 163.928 338.936 159.736 322.153 163.395ZM358.473 177.156C349.024 176.549 348.793 184.113 346.004 189.429C345.94 177.823 348.692 174.854 358.473 177.156Z" fill="white"/>
</mask>
<g mask="url(#mask3_358_16)">
<path fill-rule="evenodd" clip-rule="evenodd" d="M322.153 163.395C320.8 163.689 319.368 164.247 318.343 165.103C311.047 171.182 303.07 172.909 293.416 169.166C288.241 167.16 284.568 167.699 282.555 170.451L282.508 170.517C281.35 172.141 280.756 174.514 280.756 177.572C280.758 179.626 280.864 181.711 281.2 183.753C282.504 191.674 284.92 193.291 292.849 191.493C295.867 190.809 298.848 189.946 301.755 188.938C314.161 184.641 317.692 186.326 321.819 199.216C329.91 198.74 338.13 198.254 346.655 197.752C346.4 194.573 346.204 192.135 346.008 189.702C347.243 189.613 348.957 189.901 349.515 189.237C353.551 184.431 358.586 185.464 363.125 188.197C368.706 191.559 374.004 195.412 379.294 199.26C380.394 200.06 381.492 200.858 382.594 201.652C385.768 203.943 388.71 206.559 391.758 209.028C390.772 201.923 389.636 195.006 386.063 189.549C382.075 183.457 376.982 178.249 371.172 174.057C357.136 163.928 338.936 159.736 322.153 163.395ZM358.473 177.156C349.024 176.549 348.793 184.113 346.004 189.429C345.94 177.823 348.692 174.854 358.473 177.156Z" fill="url(#paint1_linear_358_16)"/>
</g>
<mask id="mask4_358_16" style="mask-type:luminance" maskUnits="userSpaceOnUse" x="226" y="124" width="200" height="199">
<path fill-rule="evenodd" clip-rule="evenodd" d="M309.159 124.803L425.478 208.755L343.305 322.61L226.986 238.658L309.159 124.803Z" fill="white"/>
</mask>
<g mask="url(#mask4_358_16)">
<path fill-rule="evenodd" clip-rule="evenodd" d="M354.795 296.832C352.586 286.471 351.055 275.401 347.735 264.784C344.176 253.399 345.036 242.31 345.356 231.058C345.636 221.263 345.85 211.462 346.126 200.324C340.781 201.292 336.592 202.361 332.303 202.749C327.245 203.208 325.921 205.179 326.828 210.337C328.585 220.322 330.456 230.478 330.388 240.452C330.278 256.473 328.616 272.405 327.648 288.378C327.519 290.511 327.61 292.669 327.604 293.688C336.647 294.733 344.854 295.683 354.795 296.832ZM346.192 189.235C347.45 189.099 349.29 189.443 349.874 188.749C353.911 183.944 358.945 184.977 363.483 187.71C370.225 191.77 376.553 196.548 382.953 201.165C386.128 203.456 388.451 205.461 391.498 207.929C390.113 201.09 389.294 194.756 385.722 189.3C378.204 177.816 366.84 169.623 354.375 165.35C348.469 163.325 342.577 162.288 336.385 162.134C331.962 162.025 327.271 162.307 322.84 163.272C321.486 163.568 320.267 163.867 319.241 164.721C311.946 170.802 303.919 173.071 294.265 169.329C286.034 166.137 281.113 168.739 281.115 177.086C281.116 179.138 281.223 181.224 281.559 183.266C282.863 191.188 285.28 192.804 293.208 191.007C296.225 190.322 299.207 189.459 302.114 188.452C314.52 184.154 318.051 185.839 322.178 198.73C330.269 198.253 338.109 197.343 346.634 196.84C346.128 193.307 345.868 191.635 345.672 189.189L346.192 189.235ZM280.383 166.774C287.528 166.626 293.455 164.009 301.046 166.682C304.769 167.991 310.027 164.895 314.445 163.422C317.97 162.247 321.114 159.589 324.702 159.172C351.661 156.034 373.851 165.229 389.165 188.631C393.167 194.749 394.223 202.66 396.418 209.799C396.691 210.691 395.68 212.815 395.2 212.809C393.695 212.79 391.908 212.375 390.676 211.491C383.386 206.261 376.224 200.851 369.009 195.515C368.497 195.136 367.932 194.698 367.342 194.569C362.956 193.604 357.33 190.762 354.525 192.373C351.967 193.841 351.911 200.11 351.718 204.356C351.116 217.693 350.379 231.061 350.839 244.44C351.183 254.481 353.361 264.552 354.597 274.619C355.585 282.653 356.898 290.718 357.035 298.733C357.095 302.224 355.442 306.438 353.054 308.906C346.817 315.361 330.762 315.069 323.984 308.498C321.831 306.41 320.271 302.578 320.307 299.664C320.441 288.573 320.497 277.368 322.144 266.513C324.698 249.676 324.202 232.942 321.062 216.02C319.961 210.085 318.968 204.138 317.94 198.195C316.85 191.889 314.601 190.077 308.381 191.485C303.551 192.578 298.972 194.528 294.221 195.931C285.745 198.433 281.096 196.232 279.23 187.46C277.874 181.089 279.017 174.907 278.693 168.376L280.383 166.774Z" fill="#231F20"/>
</g>
<mask id="mask5_358_16" style="mask-type:luminance" maskUnits="userSpaceOnUse" x="342" y="172" width="17" height="20">
<path fill-rule="evenodd" clip-rule="evenodd" d="M352.418 172.514L358.562 176.948L348.278 191.196L342.135 186.762L352.418 172.514Z" fill="white"/>
</mask>
<g mask="url(#mask5_358_16)">
<path fill-rule="evenodd" clip-rule="evenodd" d="M346 189.426C345.824 187.924 345.949 186.329 346.053 185.025C346.694 176.95 349.996 175.16 358.473 177.155C357.082 177.066 356.084 177.183 355.083 177.449C353.574 177.85 352.364 178.382 351.421 179.271C351.07 179.602 350.629 179.882 350.337 180.267C348.343 182.9 347.575 186.546 345.941 189.507C345.923 189.514 346.097 189.458 346.097 189.458" fill="#231F20"/>
</g>
<path fill-rule="evenodd" clip-rule="evenodd" d="M354.86 297.042C344.919 295.892 336.491 295.249 327.449 294.203C327.454 293.184 327.363 291.026 327.493 288.893C328.461 272.92 330.122 256.988 330.233 240.967C330.301 230.993 328.429 220.837 326.672 210.852C326.204 208.192 326.3 206.251 327.203 204.954C327.257 204.877 327.357 204.732 327.416 204.659C328.29 203.595 329.749 202.959 332.043 202.751C336.332 202.363 340.8 201.305 346.144 200.337C345.867 211.475 345.701 221.735 345.421 231.53C345.168 240.448 344.72 249.26 346.2 258.212C346.587 260.556 347.134 262.95 347.873 265.312C348.835 268.391 349.677 271.414 350.399 274.541C351.663 280.013 352.806 285.567 353.745 290.971C354.079 292.892 354.858 294.949 354.827 296.788C354.823 297.013 354.665 297.126 354.64 297.347" fill="#744C28"/>
<mask id="mask6_358_16" style="mask-type:luminance" maskUnits="userSpaceOnUse" x="192" y="247" width="110" height="51">
<path fill-rule="evenodd" clip-rule="evenodd" d="M259.709 296.75C261.077 296.532 262.537 296.055 263.609 295.257C271.231 289.593 279.293 288.313 288.723 292.587C293.778 294.878 297.475 294.544 299.639 291.908L299.69 291.845C300.936 290.288 301.661 287.951 301.831 284.898C301.943 282.847 301.953 280.76 301.732 278.703C300.871 270.721 298.548 268.972 290.531 270.326C287.48 270.841 284.456 271.537 281.497 272.381C268.871 275.982 265.439 274.103 262.036 261.003C253.931 261.029 245.697 261.057 237.157 261.083C237.235 264.272 237.295 266.717 237.355 269.157C236.117 269.177 234.422 268.794 233.827 269.427C229.53 274 224.561 272.689 220.181 269.707C214.796 266.04 209.72 261.899 204.652 257.762C203.598 256.902 202.546 256.044 201.491 255.19C198.448 252.726 195.657 249.95 192.751 247.316C193.34 254.465 194.09 261.434 197.353 267.081C200.996 273.386 205.792 278.869 211.36 283.378C224.811 294.272 242.749 299.47 259.709 296.75ZM224.212 280.991C233.612 282.122 234.264 274.582 237.344 269.43C236.762 281.022 233.849 283.833 224.212 280.991Z" fill="white"/>
</mask>
<g mask="url(#mask6_358_16)">
<path fill-rule="evenodd" clip-rule="evenodd" d="M259.709 296.75C261.077 296.532 262.537 296.055 263.609 295.257C271.231 289.593 279.293 288.313 288.723 292.587C293.778 294.878 297.475 294.544 299.639 291.908L299.69 291.845C300.936 290.288 301.661 287.951 301.831 284.898C301.943 282.847 301.953 280.76 301.732 278.703C300.871 270.721 298.548 268.972 290.531 270.326C287.48 270.841 284.456 271.537 281.497 272.381C268.871 275.982 265.439 274.103 262.036 261.003C253.931 261.029 245.697 261.057 237.157 261.083C237.235 264.272 237.295 266.717 237.355 269.157C236.117 269.177 234.422 268.794 233.827 269.427C229.53 274 224.561 272.689 220.181 269.707C214.796 266.04 209.72 261.899 204.652 257.762C203.598 256.902 202.546 256.044 201.491 255.19C198.448 252.726 195.657 249.95 192.751 247.316C193.34 254.465 194.09 261.434 197.353 267.081C200.996 273.386 205.792 278.869 211.36 283.378C224.811 294.272 242.749 299.47 259.709 296.75ZM224.212 280.991C233.612 282.122 234.264 274.582 237.344 269.43C236.762 281.022 233.849 283.833 224.212 280.991Z" fill="url(#paint2_linear_358_16)"/>
</g>
<mask id="mask7_358_16" style="mask-type:luminance" maskUnits="userSpaceOnUse" x="159" y="136" width="200" height="201">
<path fill-rule="evenodd" clip-rule="evenodd" d="M270.537 336.006L159.068 245.713L247.447 136.606L358.917 226.899L270.537 336.006Z" fill="white"/>
</mask>
<g mask="url(#mask7_358_16)">
<path fill-rule="evenodd" clip-rule="evenodd" d="M234.541 161.704C236.17 172.172 237.083 183.311 239.807 194.095C242.728 205.661 241.252 216.685 240.306 227.902C239.482 237.666 238.723 247.439 237.828 258.545C243.218 257.876 247.461 257.042 251.765 256.893C256.84 256.716 258.272 254.821 257.653 249.621C256.455 239.554 255.151 229.309 255.774 219.355C256.775 203.365 259.32 187.55 261.176 171.655C261.424 169.533 261.453 167.373 261.515 166.356C252.545 164.809 244.403 163.405 234.541 161.704ZM237.146 269.613C235.881 269.679 234.063 269.233 233.442 269.893C229.144 274.466 224.175 273.155 219.796 270.174C213.291 265.745 207.238 260.623 201.105 255.656C198.062 253.192 195.855 251.061 192.949 248.428C193.952 255.333 194.417 261.703 197.68 267.349C204.547 279.233 215.438 288.046 227.646 293.006C233.431 295.356 239.256 296.72 245.43 297.217C249.839 297.573 254.539 297.552 259.016 296.835C260.385 296.615 261.619 296.385 262.69 295.588C270.313 289.923 278.453 288.103 287.884 292.378C295.925 296.022 300.983 293.698 301.445 285.364C301.558 283.314 301.568 281.226 301.346 279.169C300.485 271.187 298.162 269.438 290.146 270.791C287.095 271.308 284.07 272.003 281.111 272.847C268.485 276.448 265.053 274.569 261.651 261.469C253.545 261.495 245.666 261.967 237.127 261.996C237.436 265.551 237.602 267.235 237.662 269.688L237.146 269.613ZM301.603 295.7C294.46 295.45 288.398 297.734 280.967 294.643C277.323 293.128 271.9 295.927 267.407 297.152C263.822 298.129 260.535 300.608 256.929 300.826C229.837 302.459 208.194 292.043 194.206 267.826C190.55 261.495 189.935 253.537 188.141 246.286C187.918 245.381 189.046 243.317 189.524 243.349C191.026 243.452 192.788 243.965 193.968 244.917C200.956 250.545 207.806 256.345 214.712 262.074C215.203 262.481 215.743 262.949 216.325 263.111C220.65 264.318 226.109 267.468 229 266.016C231.635 264.693 232.04 258.437 232.469 254.209C233.812 240.926 235.292 227.619 235.576 214.236C235.791 204.19 234.178 194.014 233.503 183.894C232.964 175.817 232.102 167.692 232.411 159.681C232.545 156.192 234.43 152.077 236.951 149.745C243.538 143.648 259.552 144.832 265.954 151.771C267.987 153.975 269.331 157.888 269.134 160.796C268.383 171.862 267.704 183.047 265.455 193.793C261.968 210.462 261.533 227.197 263.727 244.268C264.495 250.254 265.157 256.248 265.852 262.239C266.589 268.596 268.734 270.53 275.023 269.47C279.907 268.648 284.587 266.955 289.409 265.819C298.01 263.792 302.53 266.248 303.905 275.11C304.904 281.547 303.419 287.656 303.379 294.195L301.603 295.7Z" fill="#231F20"/>
</g>
<mask id="mask8_358_16" style="mask-type:luminance" maskUnits="userSpaceOnUse" x="224" y="267" width="18" height="19">
<path fill-rule="evenodd" clip-rule="evenodd" d="M229.999 285.962L224.111 281.193L235.171 267.539L241.058 272.308L229.999 285.962Z" fill="white"/>
</mask>
<g mask="url(#mask8_358_16)">
<path fill-rule="evenodd" clip-rule="evenodd" d="M237.348 269.433C237.44 270.942 237.226 272.528 237.05 273.825C235.961 281.851 232.564 283.455 224.212 280.991C225.595 281.157 226.598 281.096 227.612 280.886C229.141 280.57 230.379 280.106 231.37 279.271C231.739 278.96 232.195 278.705 232.507 278.337C234.645 275.819 235.615 272.221 237.411 269.355C237.429 269.349 237.253 269.396 237.253 269.396" fill="#231F20"/>
</g>
<path fill-rule="evenodd" clip-rule="evenodd" d="M234.488 161.491C244.35 163.192 252.729 164.303 261.699 165.851C261.637 166.867 261.608 169.027 261.36 171.149C259.504 187.044 256.959 202.859 255.958 218.849C255.335 228.804 256.639 239.048 257.837 249.115C258.157 251.797 257.953 253.73 256.979 254.974C256.921 255.049 256.814 255.188 256.75 255.257C255.818 256.271 254.326 256.825 252.024 256.905C247.721 257.054 243.201 257.861 237.811 258.531C238.707 247.426 239.444 237.191 240.268 227.426C241.017 218.537 241.954 209.763 240.975 200.743C240.719 198.381 240.306 195.96 239.7 193.56C238.91 190.433 238.237 187.368 237.691 184.206C236.733 178.671 235.9 173.063 235.263 167.615C235.037 165.678 234.374 163.581 234.507 161.746C234.523 161.522 234.687 161.418 234.725 161.199" fill="#744C28"/>
<defs>
<filter id="filter0_d_358_16" x="0" y="1" width="475" height="511" filterUnits="userSpaceOnUse" color-interpolation-filters="sRGB">
<feFlood flood-opacity="0" result="BackgroundImageFix"/>
<feColorMatrix in="SourceAlpha" type="matrix" values="0 0 0 0 0 0 0 0 0 0 0 0 0 0 0 0 0 0 127 0" result="hardAlpha"/>
<feOffset dy="4"/>
<feGaussianBlur stdDeviation="25"/>
<feColorMatrix type="matrix" values="0 0 0 0 0 0 0 0 0 0 0 0 0 0 0 0 0 0 0.25 0"/>
<feBlend mode="normal" in2="BackgroundImageFix" result="effect1_dropShadow_358_16"/>
<feBlend mode="normal" in="SourceGraphic" in2="effect1_dropShadow_358_16" result="shape"/>
</filter>
<linearGradient id="paint0_linear_358_16" x1="96.7137" y1="180.396" x2="186.821" y2="245.429" gradientUnits="userSpaceOnUse">
<stop stop-color="#FEFEFE"/>
<stop offset="1" stop-color="#231F20"/>
</linearGradient>
<linearGradient id="paint1_linear_358_16" x1="273.355" y1="183.198" x2="363.462" y2="248.232" gradientUnits="userSpaceOnUse">
<stop stop-color="#FEFEFE"/>
<stop offset="1" stop-color="#231F20"/>
</linearGradient>
<linearGradient id="paint2_linear_358_16" x1="309.534" y1="279.692" x2="223.184" y2="209.747" gradientUnits="userSpaceOnUse">
<stop stop-color="#FEFEFE"/>
<stop offset="1" stop-color="#231F20"/>
</linearGradient>
</defs>
</svg>
