<svg width="56" height="56" viewBox="0 0 56 56" fill="none" xmlns="http://www.w3.org/2000/svg">
<rect width="56" height="56" rx="8" fill="#FF537C"/>
<path d="M42.7557 25.1011L41.5771 23.9224C41.2516 23.5969 40.7239 23.5969 40.3984 23.9224L39.8094 24.5115L38.3041 23.0063C38.5974 21.8964 38.3229 20.6677 37.4526 19.7974L35.0958 17.4406C31.8416 14.1865 26.565 14.1865 23.3103 17.4406L28.0244 19.7974V20.774C28.0244 21.6579 28.3754 22.5058 29.001 23.1308L31.5603 25.6902C32.4307 26.5605 33.6593 26.835 34.7692 26.5417L36.2744 28.0469L35.6854 28.636C35.3598 28.9615 35.3598 29.4891 35.6854 29.8147L36.864 30.9933C37.1895 31.3188 37.7172 31.3188 38.0427 30.9933L42.7568 26.2792C43.0813 25.9542 43.0812 25.4266 42.7557 25.1011ZM27.8223 24.3094C27.6296 24.1167 27.4661 23.9037 27.3093 23.687L14.0227 36.0918C12.691 37.3355 12.655 39.435 13.9431 40.7236C15.2311 42.0121 17.3311 41.9762 18.5749 40.6439L30.9775 27.3589C30.7713 27.2074 30.5661 27.0532 30.3817 26.8688L27.8223 24.3094Z" fill="white"/>
</svg>
