<svg width="56" height="56" viewBox="0 0 56 56" fill="none" xmlns="http://www.w3.org/2000/svg">
<rect width="56" height="56" rx="8" fill="#1B2ED8"/>
<path d="M42.451 25.701L39.7996 23.0496C39.448 22.698 38.9711 22.5006 38.4736 22.5006H35.5V17.8125C35.5 16.2592 34.2408 15 32.6875 15H23.3125C21.7592 15 20.5 16.2592 20.5 17.8125V22.5H17.5264C17.0289 22.5 16.5525 22.6975 16.2004 23.049L13.549 25.701C13.1975 26.0525 13 26.5295 13 27.027V31.875H20.5V30.9375C20.5 30.4195 20.9195 30 21.4375 30H23.3125C23.8305 30 24.25 30.4195 24.25 30.9375V31.875H31.75V30.9375C31.75 30.4195 32.1695 30 32.6875 30H34.5625C35.0805 30 35.5 30.4195 35.5 30.9375V31.875H43V27.0264C43 26.5295 42.8025 26.0525 42.451 25.701ZM31.75 22.5H24.25V18.75H31.75V22.5ZM35.5 34.6875C35.5 35.2055 35.0805 35.625 34.5625 35.625H32.6875C32.1695 35.625 31.75 35.2055 31.75 34.6875V33.75H24.25V34.6875C24.25 35.2055 23.8305 35.625 23.3125 35.625H21.4375C20.9195 35.625 20.5 35.2055 20.5 34.6875V33.75H13V39.375C13 40.4104 13.8396 41.25 14.875 41.25H41.125C42.1604 41.25 43 40.4104 43 39.375V33.75H35.5V34.6875Z" fill="white"/>
</svg>
