<svg width="56" height="56" viewBox="0 0 56 56" fill="none" xmlns="http://www.w3.org/2000/svg">
<rect width="56" height="56" rx="8" fill="#95CB7C"/>
<path d="M42.7499 19.3925C42.6186 18.8634 41.9565 18.6841 41.571 19.0696L37.2139 23.4266L33.2366 22.7639L32.5739 18.7866L36.9309 14.4296C37.3188 14.0417 37.1319 13.3808 36.5993 13.2484C33.8231 12.5605 30.7663 13.3017 28.5966 15.4708C26.2739 17.7935 25.6347 21.1602 26.6015 24.0958L14.0982 36.5991C12.6339 38.0633 12.6339 40.4375 14.0982 41.9018C15.5624 43.366 17.9367 43.366 19.4009 41.9018L31.8937 29.409C34.8304 30.3881 38.1907 29.7419 40.5286 27.404C42.7007 25.2319 43.4407 22.1704 42.7499 19.3925ZM16.7501 40.6561C15.9738 40.6561 15.3439 40.0262 15.3439 39.2498C15.3439 38.4729 15.9738 37.8436 16.7501 37.8436C17.5265 37.8436 18.1564 38.4729 18.1564 39.2498C18.1564 40.0262 17.5265 40.6561 16.7501 40.6561Z" fill="white"/>
</svg>
